<svg xmlns="http://www.w3.org/2000/svg" width="1080" height="1080"><path fill="#FF0" stroke="#FF0" stroke-width="NaN" d="M557.5 0h470l12.5 7.5 7 25-9 17-409 443 432.5.5 16.5 11.5 2 29L578.5 1076l-26 4-10.5-6.5-7-15-.5-509.5-127.5.5q-64.7 121.3-142 230L40.5 1075l-18 4L5 1068.5l-4-28 226-302 145-236q55.1-102.4 97-218 43.5-117.5 66-256L548.5 4l9-4zM589 55l-2 402h2L958 56l-369-1zm-54 202q-40 125-96 234l-1 2h97V257zm53 292v437l405-436-405-1z"/><path fill="#FE0000" stroke="#FE0000" stroke-width="NaN" d="M1039.5 6l40.5 40.5v106L765.5 493l-136.5-.5 409-443 9-27-7.5-16.5zm-505 251l.5 235.5-97.5.5 1.5-2.5q55.6-108.9 95.5-233.5zm537 240l8.5 10.5h-1l-7.5-10.5zm8 37l.5 149.5L711.5 1080l-139.5-.5 9-6L1079.5 534zm-672 15l127.5.5-.5 70.5-55.5.5Q339.9 867.9 165.5 1080h-150L5 1069.5l6.5 5.5 18 4 18.5-11.5 217-288L407.5 549zm135 525l9.5 5.5-4.5.5-5-6z" opacity=".98"/><path fill="#0000FE" stroke="#0000FE" stroke-width="NaN" d="M588.5 55l369.5.5L588.5 457l-1.5-.5L588.5 55zm-1 494l405.5.5L587.5 986V549z" opacity=".996"/></svg>